<svg id="Layer_1" data-name="Layer 1" xmlns="http://www.w3.org/2000/svg" viewBox="0 0 512 512"><defs><style>.cls-1{fill:#d9e4e8;}.cls-2{fill:#79d3d3;}.cls-3{fill:#141f38;}.cls-4{opacity:0.14;}.cls-5{fill:#17292d;}</style></defs><title>telescope_style_3</title><path class="cls-1" d="M52.06,329.28a19.31,19.31,0,0,1-17.44-11.09L13.54,273a16.66,16.66,0,0,1,8.07-22.15l11.55-5.38a19.08,19.08,0,0,1,8.1-1.81,19.31,19.31,0,0,1,17.43,11.09l21.07,45.16a16.66,16.66,0,0,1-8.07,22.15l-11.55,5.38A19.06,19.06,0,0,1,52.06,329.28Z"/><path class="cls-1" d="M141.91,305a28.11,28.11,0,0,1-25.38-16.16L84.47,220.19a27.88,27.88,0,0,1,11.08-35.88L377.87,16.74A28,28,0,0,1,417.55,29l59.67,127.87a28,28,0,0,1-16.13,38.23L151.15,303.47A28,28,0,0,1,141.91,305Z"/><rect class="cls-1" x="67.78" y="237.71" width="36.25" height="60.97" transform="translate(-105.24 61.38) rotate(-24.98)"/><path class="cls-2" d="M494.72,128.43a73.16,73.16,0,0,1-28.27,36.05,15.84,15.84,0,0,0-.84-2.24l-4.5-9.64L410.46,44.06l-4.52-9.69a14.52,14.52,0,0,0-1.14-2,72.62,72.62,0,0,1,20.5-2.93,74.12,74.12,0,0,1,67,42.6A73.24,73.24,0,0,1,494.72,128.43Z"/><path class="cls-3" d="M503.86,66.61a86.59,86.59,0,0,0-78.55-50V17c-.09-.12-.17-.24-.27-.36A40.81,40.81,0,0,0,371.32,5.73L303.17,46.18,132.1,147.73,89,173.31A40.76,40.76,0,0,0,72.86,225.6l.35.76L55.9,234.43a32,32,0,0,0-28.16-.53l-9.24,4.31A32,32,0,0,0,3,280.73L23,323.6a32,32,0,0,0,42.55,15.48l9.25-4.31A31.94,31.94,0,0,0,92.5,312.88l18.84-8.78a40.79,40.79,0,0,0,44,11.45L202.69,299h0L234,288.06a51.23,51.23,0,0,0,17.7,22.4L154.84,493.21a12.8,12.8,0,1,0,22.64,12l91.15-172V499.2a12.81,12.81,0,0,0,25.62,0V333.14l91.15,172a12.8,12.8,0,0,0,22.64-12L311.22,310.46a51.18,51.18,0,0,0,19.36-56.18l59.92-21,74.81-26.17a40.79,40.79,0,0,0,26.21-48A86.53,86.53,0,0,0,503.86,66.61ZM67.3,307.95A6.33,6.33,0,0,1,64,311.57l-9.24,4.3a6.25,6.25,0,0,1-2.69.61,6.36,6.36,0,0,1-5.82-3.7L25.87,269.15a5.54,5.54,0,0,1,2.69-7.38l10-4.67a6.36,6.36,0,0,1,2.69-.61,6.45,6.45,0,0,1,5.82,3.71l20,42.86A6.27,6.27,0,0,1,67.3,307.95Zm21.26-21.48-15-32.05,9.64-4.49,15,32Zm58.36,4.92a15.17,15.17,0,0,1-18.79-7.91l-32-68.7a15.11,15.11,0,0,1,6-19.46l18.75-11.14h0l46.67,100Zm134.52,3a25.64,25.64,0,0,1-23.23-14.82l48.12-16.82a25,25,0,0,1,.73,6A25.64,25.64,0,0,1,281.44,294.4ZM317,231.91l-32.72,11.45-20.88,7.3-32.74,11.45-38.82,13.58L143,171.05,314.05,69.5l32.8,70.28L379.62,210Zm150-61.49a14.65,14.65,0,0,1-.47,2.34c-.07.23-.13.45-.2.66-.14.42-.28.8-.42,1.13s-.17.39-.28.61a4,4,0,0,1-.23.47,3.24,3.24,0,0,1-.19.37l-.07.12c-.08.14-.16.28-.25.42s-.2.34-.32.51l0,0a1.28,1.28,0,0,1-.13.19l-.07.1-.2.29-.19.24c0,.08-.12.16-.18.24s-.37.45-.58.68-.41.44-.63.66a15.06,15.06,0,0,1-5.64,3.49l-14.67,5.13h0L403.92,201.5l-7.86-16.84-52-111.4-7.89-16.9,35.21-20.9,13-7.72a14.93,14.93,0,0,1,7.71-2.14,15.15,15.15,0,0,1,12.68,6.75,14.52,14.52,0,0,1,1.14,2l4.52,9.69L461.11,152.6l4.5,9.64a15.84,15.84,0,0,1,.84,2.24A14.7,14.7,0,0,1,466.93,170.42Zm12.51-39.09L438.55,43.69a60.89,60.89,0,0,1,40.89,87.64Z"/><path class="cls-3" d="M464.46,177.1l-.12.19a1.28,1.28,0,0,0,.13-.19l0,0Zm-.58.82.19-.24.2-.29-.21.29Zm1.25-1.92c-.1.18-.2.36-.31.54.09-.14.17-.28.25-.42l.07-.12a3.24,3.24,0,0,0,.19-.37Zm.7-1.45-.27.61c.11-.22.2-.42.28-.61s.28-.71.42-1.13C466.12,173.84,466,174.22,465.83,174.55Z"/><polygon class="cls-3" points="120.84 184.18 120.84 184.19 102.09 195.32 120.84 184.18"/><g class="cls-4"><path class="cls-5" d="M91.87,266.34l13,28a40.82,40.82,0,0,0,50.47,21.25l309.93-108.4a40.77,40.77,0,0,0,23.51-55.73l-14-29.95Z"/></g><g class="cls-4"><path class="cls-5" d="M23.47,324.58a30.94,30.94,0,0,0,41.11,15l11.22-5.23a30.91,30.91,0,0,0,15-41.08l-7.84-16.81L15.62,307.77Z"/></g></svg>