<?xml version="1.0" encoding="iso-8859-1"?>
<!-- Generator: Adobe Illustrator 19.0.0, SVG Export Plug-In . SVG Version: 6.00 Build 0)  -->
<svg version="1.1" id="Layer_1" xmlns="http://www.w3.org/2000/svg" xmlns:xlink="http://www.w3.org/1999/xlink" x="0px" y="0px"
	 viewBox="0 0 504.126 504.126" style="enable-background:new 0 0 504.126 504.126;" xml:space="preserve">
<circle style="fill:#663500;" cx="252.063" cy="252.062" r="252.062"/>
<g>
	<path style="fill:#8E4D00;" d="M430.31,430.308c-98.446,98.438-258.048,98.414-356.494-0.016
		c-98.399-98.43-98.406-258.016,0-356.47"/>
	<circle style="fill:#8E4D00;" cx="247.526" cy="256.638" r="215.725"/>
</g>
<path style="fill:#A85E04;" d="M247.534,472.34c-119.146-0.008-215.733-96.595-215.741-215.749
	c0.008-119.131,96.61-215.71,215.741-215.733"/>
<circle style="fill:#A35902;" cx="247.534" cy="256.638" r="178.42"/>
<path style="fill:#AD6D05;" d="M121.353,382.763c-69.671-69.687-69.664-182.65,0.008-252.337c69.687-69.664,182.65-69.664,252.329,0
	"/>
<circle style="fill:#FFCE00;" cx="247.534" cy="256.638" r="133.648"/>
<path id="SVGCleanerId_0" style="fill:#FFB600;" d="M153.026,162.091c52.192-52.192,136.806-52.192,189.007,0
	c52.193,52.2,52.193,136.822,0,189.023"/>
<g>
	<circle style="fill:#FFCE00;" cx="247.534" cy="256.638" r="133.648"/>
	<circle style="fill:#FFCE00;" cx="247.534" cy="256.638" r="133.648"/>
</g>
<path style="fill:#FFB600;" d="M327.894,149.984c16.896,22.386,27.041,50.152,27.041,80.36C354.936,304.159,295.095,364,221.28,364
	c-30.208,0-57.974-10.145-80.368-27.041c24.403,32.319,63.015,53.295,106.622,53.295c73.807,0,133.656-59.841,133.656-133.656
	C381.189,212.992,360.205,174.387,327.894,149.984z"/>
<g>
	<path id="SVGCleanerId_0_1_" style="fill:#FFB600;" d="M153.026,162.091c52.192-52.192,136.806-52.192,189.007,0
		c52.193,52.2,52.193,136.822,0,189.023"/>
</g>
<path style="fill:#FFA300;" d="M380.614,244.917c-0.055-0.67-0.11-1.347-0.173-2.024c-0.394-3.797-0.922-7.585-1.638-11.351
	c-0.095-0.504-0.213-1-0.323-1.505c-0.677-3.411-1.52-6.798-2.473-10.153c-0.181-0.63-0.339-1.276-0.52-1.906
	c-1-3.308-2.166-6.569-3.434-9.807c-0.48-1.245-0.985-2.481-1.504-3.71c-1.197-2.844-2.497-5.664-3.907-8.428
	c-0.819-1.607-1.717-3.167-2.599-4.742c-0.811-1.441-1.662-2.867-2.528-4.285c-1.772-2.875-3.639-5.687-5.608-8.413
	c-0.662-0.914-1.323-1.827-2.016-2.733c-2.678-3.513-5.522-6.892-8.539-10.13c-0.197-0.221-0.402-0.449-0.607-0.67
	c-5.175-5.482-10.807-10.531-16.841-15.084c16.896,22.386,27.041,50.152,27.041,80.36c0,36.911-14.958,70.317-39.148,94.507
	l26.246,26.254c0.181-0.173,0.339-0.378,0.504-0.551c2.946-2.977,5.742-6.057,8.357-9.232c1.245-1.528,2.355-3.167,3.537-4.742
	c1.441-1.914,2.922-3.805,4.246-5.774c1.229-1.835,2.308-3.773,3.45-5.664c1.111-1.851,2.276-3.679,3.277-5.569
	c1.016-1.89,1.883-3.868,2.804-5.805c0.953-2.016,1.961-4.009,2.804-6.065c0.772-1.835,1.386-3.742,2.064-5.616
	c0.819-2.245,1.678-4.466,2.355-6.743c0.551-1.804,0.953-3.678,1.426-5.514c0.607-2.387,1.268-4.766,1.757-7.184
	c0.394-2.001,0.622-4.064,0.929-6.097c0.339-2.276,0.764-4.545,0.985-6.837c0.331-3.387,0.449-6.837,0.52-10.303
	C381.142,254.574,381.04,249.738,380.614,244.917z"/>
<path style="fill:#FFE000;" d="M113.886,256.599c0-73.823,59.833-133.656,133.648-133.656"/>
<g>
	<circle style="fill:#FFEB76;" cx="165.157" cy="276.708" r="15.573"/>
	<circle style="fill:#FFEB76;" cx="187.535" cy="226.076" r="1.946"/>
	<circle style="fill:#FFEB76;" cx="241.587" cy="307.365" r="11.193"/>
</g>
<g>
	<circle style="fill:#FFCE00;" cx="275.135" cy="185.194" r="17.518"/>
	<circle style="fill:#FFCE00;" cx="288.297" cy="243.129" r="5.356"/>
	<circle style="fill:#FFCE00;" cx="324.767" cy="228.053" r="9.736"/>
	<circle style="fill:#FFCE00;" cx="348.114" cy="272.786" r="5.837"/>
</g>
<g>
	<circle style="fill:#F4EBC1;" cx="149.033" cy="79.431" r="17.723"/>
	<circle style="fill:#F4EBC1;" cx="221.894" cy="64.331" r="2.623"/>
	<circle style="fill:#F4EBC1;" cx="68.287" cy="286.2" r="9.192"/>
	<circle style="fill:#F4EBC1;" cx="464.11" cy="263.223" r="12.477"/>
	<circle style="fill:#F4EBC1;" cx="426.064" cy="370.877" r="3.285"/>
	<ellipse style="fill:#F4EBC1;" cx="328.863" cy="77.139" rx="1.969" ry="21.662"/>
	<ellipse style="fill:#F4EBC1;" cx="328.863" cy="77.139" rx="21.662" ry="1.969"/>
	
		<ellipse transform="matrix(0.7083 -0.7059 0.7059 0.7083 -231.6354 182.7071)" style="fill:#F4EBC1;" cx="105.26" cy="371.635" rx="9.027" ry="0.819"/>
	
		<ellipse transform="matrix(0.7083 0.7059 -0.7059 0.7083 293.0587 34.1147)" style="fill:#F4EBC1;" cx="105.25" cy="371.661" rx="9.027" ry="0.819"/>
	<ellipse style="fill:#F4EBC1;" cx="306.099" cy="445.212" rx="7.341" ry="0.662"/>
	<ellipse style="fill:#F4EBC1;" cx="306.099" cy="445.212" rx="0.662" ry="7.333"/>
	<path style="fill:#F4EBC1;" d="M411.925,237.789c-4.986,0-9.027-0.362-9.027-0.819c0.008-0.449,4.049-0.827,9.043-0.819
		c4.97,0,9.019,0.362,9.019,0.819C420.944,237.426,416.911,237.796,411.925,237.789z"/>
	<ellipse style="fill:#F4EBC1;" cx="411.925" cy="236.969" rx="0.819" ry="9.027"/>
</g>
<g>
</g>
<g>
</g>
<g>
</g>
<g>
</g>
<g>
</g>
<g>
</g>
<g>
</g>
<g>
</g>
<g>
</g>
<g>
</g>
<g>
</g>
<g>
</g>
<g>
</g>
<g>
</g>
<g>
</g>
</svg>
